<?xml version="1.0" encoding="UTF-8"?>
<svg version="1.1" xmlns="http://www.w3.org/2000/svg" width="1024" height="1024">
<path d="M0 0 C337.92 0 675.84 0 1024 0 C1024 337.92 1024 675.84 1024 1024 C686.08 1024 348.16 1024 0 1024 C0 686.08 0 348.16 0 0 Z " fill="#4C7F99" transform="translate(0,0)"/>
<path d="M0 0 C337.92 0 675.84 0 1024 0 C1024 212.19 1024 424.38 1024 643 C1017.24729692 638.49819795 1017.24729692 638.49819795 1014.15234375 635.93359375 C1013.47139648 635.3713208 1012.79044922 634.80904785 1012.08886719 634.22973633 C1011.37891602 633.63829834 1010.66896484 633.04686035 1009.9375 632.4375 C1009.19016602 631.81834717 1008.44283203 631.19919434 1007.67285156 630.5612793 C1001.59842555 625.52023225 995.56334231 620.43358935 989.55175781 615.31787109 C987.98294189 613.98551295 986.41012121 612.65804156 984.8359375 611.33203125 C978.40173603 605.90983005 972.01919754 600.43185413 965.66552734 594.91552734 C956.37166375 586.84712298 947.05969574 578.82367038 937.5 571.0703125 C935.17234142 569.14272024 932.92452569 567.15641671 930.6875 565.125 C926.84861 561.67415664 922.86624866 558.44225409 918.8125 555.25 C918.23008545 554.78996582 917.6476709 554.32993164 917.04760742 553.85595703 C915.9121525 552.96885763 914.76672087 552.09436931 913.61132812 551.23339844 C912.14767536 550.11303877 910.76489741 548.88896319 909.39453125 547.65625 C904.90191324 545.46422464 901.40620373 545.88698894 896.47949219 546.10766602 C881.72230222 546.6903971 881.72230222 546.6903971 876.68261719 543.56103516 C872.39459102 539.39899624 869.68762633 534.27844715 867 529 C863.9548076 523.65329304 863.9548076 523.65329304 860 519 C857.4402738 518.42051801 855.15335266 518.37390647 852.53491211 518.39257812 C849.38282721 517.90441935 848.76362329 517.12252231 846.83984375 514.63671875 C842.41541283 509.22495877 837.51264793 504.36653855 832.5625 499.4375 C831.65951172 498.53064453 830.75652344 497.62378906 829.82617188 496.68945312 C825.24614865 492.11606281 820.60759342 487.69196295 815.69555664 483.47729492 C813.50104616 481.56527435 811.46401425 479.5255403 809.4375 477.4375 C805.78309745 473.73234186 802.00395043 470.32242695 798 467 C794.18526987 468.37906611 791.08894691 470.14316648 787.75 472.4375 C786.15478516 473.51644531 786.15478516 473.51644531 784.52734375 474.6171875 C783.66858643 475.19871582 783.66858643 475.19871582 782.79248047 475.79199219 C726.91961569 513.44643715 726.91961569 513.44643715 703 521 C697.74193074 515.86484664 692.76553327 510.59308096 688 505 C686.79923828 503.61554688 686.79923828 503.61554688 685.57421875 502.203125 C679.21831511 494.83328105 673.25622861 487.20997679 667.38671875 479.44921875 C665.12885674 476.46779226 662.84037861 473.51468534 660.51953125 470.58203125 C653.9144531 462.2279563 647.64881505 453.74751815 641.69677734 444.91479492 C637.84877387 439.20772994 633.87108131 433.6205027 629.75683594 428.10253906 C626.50374683 423.7336911 623.45856572 419.25835785 620.53515625 414.66015625 C620.02855469 414.11230469 619.52195312 413.56445312 619 413 C615.18593915 412.60139648 615.18593915 412.60139648 613.32421875 414.25 C612.78410156 414.8275 612.24398437 415.405 611.6875 416 C611.08550781 416.63292969 610.48351562 417.26585937 609.86328125 417.91796875 C607.42081397 420.64718271 605.0709214 423.44853904 602.7734375 426.30078125 C600.68189702 428.3047903 598.72515415 429.08386456 596 430 C590.52166055 424.10279355 585.21812563 418.21544104 580.375 411.77734375 C578.34202916 409.14949792 577.40909685 408.10421437 574.1171875 407.265625 C570.11943595 405.64247775 568.97749661 403.43102638 567.125 399.75 C566.75971191 399.06671631 566.39442383 398.38343262 566.01806641 397.67944336 C564.65974085 395.12925638 563.33087625 392.56461787 562 390 C559.46901145 385.18182716 556.9251604 380.37054943 554.375 375.5625 C554.03421417 374.91906647 553.69342834 374.27563293 553.34231567 373.61270142 C543.90894171 355.83091476 533.92146113 338.25066382 522 322 C516.00571262 322.51467865 511.39381522 324.37940113 505.99609375 326.96484375 C504.73382713 327.55489952 504.73382713 327.55489952 503.44606018 328.15687561 C500.77234846 329.40838012 498.10472022 330.67222762 495.4375 331.9375 C492.76578113 333.19709002 490.09284244 334.45398252 487.41822815 335.70741272 C485.75904429 336.48578165 484.10166471 337.26801199 482.44639587 338.05467224 C478.3571086 339.98120543 474.33653911 341.680899 470 343 C464.67416307 333.76579695 459.62705008 324.416672 454.75 314.9375 C450.06392531 305.8439747 445.17590205 296.90199718 440.09130859 288.02612305 C435.89045548 280.659255 431.88065213 273.20417594 427.91595459 265.70883179 C426.87908382 263.7576848 425.83222003 261.81225676 424.78173828 259.8684082 C421.84590318 254.42645412 418.95355105 249.00405193 416.41796875 243.359375 C409.79568621 229.30721448 399.32996652 223.88854201 385.4609375 217.55126953 C380.52717397 214.44123645 379.35536017 209.48812836 377.6875 204.13671875 C377.2540041 202.77268508 376.81964219 201.40892639 376.38452148 200.04541016 C376.15932831 199.33443176 375.93413513 198.62345337 375.70211792 197.89093018 C369.32280363 177.87096885 361.05022448 159.16819447 350.99584961 140.70751953 C348 135.19319778 348 135.19319778 348 133 C347.24074219 133.2165625 346.48148437 133.433125 345.69921875 133.65625 C344.70535156 133.9346875 343.71148437 134.213125 342.6875 134.5 C341.20830078 134.91765625 341.20830078 134.91765625 339.69921875 135.34375 C337 136 337 136 334 136 C333.63350342 135.16863525 333.26700684 134.33727051 332.8894043 133.48071289 C331.48990092 130.34400035 330.06514104 127.22136606 328.62280273 124.10424805 C328.00876682 122.76381934 327.40456946 121.41883104 326.8112793 120.0690918 C322.49555211 110.27585095 318.00660429 104.21311205 309 98 C307.76273511 97.05625181 306.52891148 96.10794889 305.30078125 95.15234375 C303.82158203 94.05599609 303.82158203 94.05599609 302.3125 92.9375 C301.29800781 92.18339844 300.28351563 91.42929688 299.23828125 90.65234375 C298.13033203 89.83443359 298.13033203 89.83443359 297 89 C293.74792908 90.41738489 291.68638933 92.12526412 289.25 94.6875 C286.69010938 97.31784633 284.11472618 99.8177527 281.3125 102.1875 C276.85175567 106.01099514 272.76079993 110.18436854 268.65551758 114.3815918 C268.12595459 114.91953369 267.5963916 115.45747559 267.05078125 116.01171875 C266.53346436 116.53886475 266.01614746 117.06601074 265.4831543 117.60913086 C264 119 264 119 261.4140625 120.671875 C257.43821212 124.50619026 256.01310158 129.47007856 254.0625 134.5625 C253.35493085 136.35372021 252.64733737 138.14493095 251.93893433 139.93582153 C251.1707085 141.88453399 250.40929264 143.8358064 249.64892578 145.78759766 C246.9571434 152.68352097 244.18796707 159.54876577 241.43307495 166.41964722 C240.51424036 168.71443473 239.59848622 171.01042585 238.68383789 173.30688477 C238.39469009 174.03216873 238.1055423 174.7574527 237.80763245 175.50471497 C237.26890339 176.85632451 236.73079445 178.20818148 236.19346619 179.56034851 C235.46898755 181.37624372 234.73461453 183.18818153 234 185 C233.77331131 185.65168655 233.54662262 186.30337311 233.31306458 186.97480774 C232.60668945 188.89086914 232.60668945 188.89086914 231 192 C228.8269043 192.97143555 228.8269043 192.97143555 226.32421875 193.13671875 C225.41349609 193.24048828 224.50277344 193.34425781 223.56445312 193.45117188 C221.65962893 193.6076442 219.75321616 193.74593287 217.84570312 193.86523438 C213.68777717 194.36629522 210.96777346 194.80637209 208.25610352 198.15087891 C206.58992187 201.35501005 205.26924557 204.62648585 204 208 C203.43231419 209.41611191 202.86160861 210.83101597 202.28833008 212.24487305 C200.67206697 216.27208901 199.11207518 220.31905725 197.56533813 224.37341309 C191.3130173 240.74920048 184.77930036 256.98889065 177.96118164 273.13671875 C177.37622599 274.52333676 176.79150228 275.91005265 176.20703125 277.296875 C175.79367271 278.27763 175.79367271 278.27763 175.3719635 279.27819824 C172.77785055 285.46716746 170.36133899 291.71839287 168 298 C159.22502738 296.6030823 154.38166118 293.91369683 148.72265625 287.04296875 C147.03250751 285.038552 145.29775134 283.21905578 143.375 281.4375 C142.58222656 280.69306641 142.58222656 280.69306641 141.7734375 279.93359375 C139.96735317 278.79759155 139.96735317 278.79759155 137.515625 279.0703125 C129.87632854 281.89353076 124.65395949 294.73620919 120.56005859 301.53881836 C116.68465842 307.95683348 112.61950282 314.23642542 108.5 320.5 C104.09324901 327.20611675 99.76252147 333.93692448 95.625 340.8125 C83.82180996 360.34097736 70.89586377 379.19970436 58.25 398.1875 C57.63077667 399.11771973 57.01155334 400.04793945 56.37356567 401.00634766 C54.58897412 403.68615026 52.80261731 406.36476662 51.015625 409.04296875 C50.48289474 409.84304855 49.95016449 410.64312836 49.40129089 411.467453 C46.34718384 416.03926661 43.21969189 420.54313225 40 425 C34.42124919 424.50411104 29.81710399 422.88962773 24.6484375 420.7421875 C21.5214227 419.86588542 20.05586006 419.91781555 17 421 C14.23896143 422.9193478 14.23896143 422.9193478 11.5625 425.3125 C7.78379937 428.56444008 4.19938612 431.20040925 0 434 C0 290.78 0 147.56 0 0 Z " fill="#FEFEFE" transform="translate(0,0)"/>
<path d="M0 0 C337.92 0 675.84 0 1024 0 C1024 103.95 1024 207.9 1024 315 C686.08 315 348.16 315 0 315 C0 211.05 0 107.1 0 0 Z " fill="#FEFEFE" transform="translate(0,709)"/>
<path d="M0 0 C4.09954616 1.39840892 6.89346877 3.33212862 10.1875 6.125 C11.04730469 6.84945312 11.90710938 7.57390625 12.79296875 8.3203125 C13.27443359 8.73684082 13.75589844 9.15336914 14.25195312 9.58251953 C16.05759703 11.08609083 16.05759703 11.08609083 18.34179688 12.60107422 C26.00116595 18.0610604 29.38162696 24.41211119 33.125 32.875 C33.70345578 34.1234517 34.28417411 35.37085764 34.8671875 36.6171875 C39 45.59129464 39 45.59129464 39 48 C39.67546875 47.7834375 40.3509375 47.566875 41.046875 47.34375 C41.93890625 47.0653125 42.8309375 46.786875 43.75 46.5 C44.63171875 46.2215625 45.5134375 45.943125 46.421875 45.65625 C49 45 49 45 53 45 C68.68767442 74.32595268 68.68767442 74.32595268 74.5 88.875 C74.89872314 89.87015625 75.29744629 90.8653125 75.70825195 91.890625 C77.727397 97.12013859 79.399554 102.32107094 80.78515625 107.75390625 C83.90757563 121.28488998 83.90757563 121.28488998 93.11499023 130.97338867 C96.66132202 132.87853159 100.26629935 134.50079264 104 136 C113.54923361 140.25374952 117.0163379 146.28568167 121.58154297 155.26708984 C124.16239858 160.23956794 126.92394682 165.11399144 129.64971924 170.00799561 C135.85693056 181.17498891 141.94159526 192.40789663 147.98217773 203.66577148 C151.70690784 210.60704732 155.46614299 217.52829917 159.25 224.4375 C164.61169552 234.2336604 169.83282622 244.10006086 175 254 C181.25762397 251.65326904 187.33223728 248.96536827 193.38671875 246.14453125 C194.13784943 245.79550751 194.8889801 245.44648376 195.66287231 245.08688354 C198.80046234 243.62743838 201.93697788 242.16593595 205.06762695 240.69165039 C207.37851552 239.60505784 209.69458268 238.53022335 212.01171875 237.45703125 C212.70980148 237.12476028 213.40788422 236.79248932 214.12712097 236.45014954 C218.46551104 234.45382616 222.23972479 233.45042715 227 233 C238.10308361 247.68714897 247.12924244 263.61059132 255.9375 279.75 C256.41968994 280.63276611 256.90187988 281.51553223 257.39868164 282.42504883 C259.88364005 287.00458314 262.32035834 291.60379379 264.68913269 296.24465942 C265.61300467 298.05041818 266.54552766 299.85144487 267.48071289 301.65136719 C268.67756501 303.96180383 269.85725949 306.28123163 271.01733398 308.61035156 C274.09223813 315.03270456 274.09223813 315.03270456 279.671875 318.984375 C281.31929687 319.48710938 281.31929687 319.48710938 283 320 C285.15234375 321.91015625 285.15234375 321.91015625 286.9375 324.0625 C287.93330078 325.24199219 287.93330078 325.24199219 288.94921875 326.4453125 C291.72668691 329.90524427 294.46171576 333.39676936 297.140625 336.93359375 C298.99991872 338.99990967 300.44703797 339.96638927 303 341 C307.91494866 336.91484787 312.338336 332.68843705 316.45703125 327.796875 C317.90282773 326.11316264 319.41007985 324.54694933 321 323 C324.61763045 324.46446747 326.21490713 326.26448879 328.4375 329.4375 C329.48357422 330.92056641 329.48357422 330.92056641 330.55078125 332.43359375 C332.88085052 335.81195198 335.18526755 339.20779477 337.49316406 342.60131836 C338.30092285 343.78866577 338.30092285 343.78866577 339.125 345 C339.95016113 346.21345093 339.95016113 346.21345093 340.79199219 347.45141602 C350.04016709 360.98581524 359.91635377 374.07931504 370 387 C370.66660645 387.85585693 370.66660645 387.85585693 371.34667969 388.72900391 C380.23012593 400.12704357 389.2538049 411.32083579 399 422 C400.68877773 423.87384926 402.37631252 425.74881956 404.0625 427.625 C404.81660156 428.46289062 405.57070313 429.30078125 406.34765625 430.1640625 C406.89292969 430.76992188 407.43820312 431.37578125 408 432 C421.57633221 427.30297511 433.65515097 420.25846932 446 413 C446.87914062 412.48598633 447.75828125 411.97197266 448.6640625 411.44238281 C466.54200775 400.96574288 483.79981424 389.54497317 501 378 C505.15342085 379.66743173 508.11116768 382.66332744 511.3125 385.6875 C511.89281982 386.22914795 512.47313965 386.7707959 513.07104492 387.32885742 C516.55219043 390.59136376 519.95666831 393.91660999 523.29418945 397.32617188 C524.96547194 398.96611931 526.69547993 400.47749221 528.48046875 401.9921875 C533.53105403 406.3879063 538.27140935 411.08532583 543.00292969 415.81762695 C544.52002025 417.33249086 546.04499737 418.83912592 547.5703125 420.34570312 C548.53694493 421.309408 549.50310897 422.27358298 550.46875 423.23828125 C551.33951172 424.10493408 552.21027344 424.97158691 553.10742188 425.86450195 C555 428 555 428 555 430 C555.96534668 429.8618689 555.96534668 429.8618689 556.95019531 429.72094727 C563.85807049 429.15042506 563.85807049 429.15042506 566.94726562 431.44873047 C568.71639158 433.52812911 570.24449736 435.66018904 571.75 437.9375 C572.53697266 439.04061523 572.53697266 439.04061523 573.33984375 440.16601562 C575.50546625 443.22729681 577.59831684 446.18613471 579.26098633 449.55493164 C580.64136269 452.17343874 581.78176557 454.03019217 584 456 C588.42036697 457.05179518 592.67304046 456.78027348 597.1875 456.5625 C599.63677281 456.55428529 602.08628728 456.5719599 604.53515625 456.6171875 C605.62707275 456.6157373 606.71898926 456.61428711 607.84399414 456.61279297 C614.1106261 457.38163944 617.72886491 460.64524329 622 465 C624.08673113 466.75499167 626.21125998 468.45745791 628.33886719 470.16259766 C634.34280821 474.98806329 640.19296676 479.9780961 645.90234375 485.1484375 C648.35892734 487.31681854 650.890677 489.37595482 653.4375 491.4375 C657.91853252 495.07093805 662.20595249 498.86491872 666.46875 502.75 C669.0884481 505.07862053 671.7751531 507.29562947 674.5 509.5 C678.0947765 512.4081338 681.58260628 515.38541332 685 518.5 C689.24651686 522.36533345 693.6301311 526.01398246 698.09375 529.625 C701.20392325 532.16664696 704.25911099 534.76583237 707.3125 537.375 C713.17922425 542.37800467 719.20976647 547.15179055 725.296875 551.8828125 C728 554 728 554 729 555 C729.09413687 557.05556661 729.11742998 559.11440181 729.11352539 561.17211914 C729.11367142 561.81600082 729.11381744 562.45988251 729.1139679 563.12327576 C729.11326885 565.26060303 729.10547691 567.39784413 729.09765625 569.53515625 C729.09579204 571.01346285 729.09436815 572.49177007 729.09336853 573.97007751 C729.08954359 577.86798802 729.07971352 581.76586149 729.06866455 585.66375732 C729.05844992 589.63846333 729.0538708 593.61317529 729.04882812 597.58789062 C729.03809122 605.391944 729.02101509 613.19596682 729 621 C672.98065613 621.23981518 616.96126186 621.4626831 560.94154358 621.59280396 C560.111564 621.59473675 559.28158443 621.59666955 558.42645396 621.59866092 C540.3859026 621.64056806 522.34534579 621.67934969 504.30478084 621.71491461 C495.45684813 621.73237632 486.60891689 621.75052821 477.76098633 621.76904297 C476.88054175 621.7708736 476.00009718 621.77270422 475.09297247 621.77459032 C446.58895926 621.83417925 418.08533627 621.93928459 389.58155917 622.06816109 C360.2740685 622.20042985 330.96679353 622.28644519 301.65900944 622.31480986 C297.51325329 622.31884364 293.36749787 622.32340254 289.22174263 622.3282814 C288.40585143 622.32922532 287.58996022 622.33016925 286.74934504 622.33114177 C273.65036487 622.3476437 260.55205442 622.41246069 247.45334666 622.49564848 C234.26348963 622.57837306 221.07429208 622.60947696 207.88418507 622.58901928 C200.06071711 622.57842339 192.23967513 622.6062719 184.41664839 622.6911656 C178.55219757 622.75041823 172.68938628 622.73515845 166.82474441 622.69258453 C164.46896845 622.68671741 162.11298131 622.70405803 159.75761472 622.74836455 C142.53797463 623.05316304 131.5615405 618.83023944 117.5623346 608.82976009 C114.16604218 606.40447172 110.69441775 604.09905761 107.22197204 601.78481191 C97.97827874 595.5744796 88.91944374 589.05783438 79.92919922 582.48632812 C77.72946567 580.878471 75.52332855 579.28006453 73.3125 577.6875 C72.59054443 577.16663818 71.86858887 576.64577637 71.12475586 576.10913086 C67.17843944 573.32660507 63.49094571 571.1965054 58.9375 569.5 C53.12249717 567.20390962 50.92920948 563.00593782 48.046875 557.64453125 C45.41264183 554.24114222 43.04069184 553.73471323 39 553 C37.19108654 552.61870107 35.38251879 552.23576002 33.57421875 551.8515625 C30.60338745 551.22989961 27.63297202 550.61432614 24.65429688 550.03125 C23.69974609 549.82757812 22.74519531 549.62390625 21.76171875 549.4140625 C20.4617395 549.15036865 20.4617395 549.15036865 19.13549805 548.88134766 C17 548 17 548 15 544 C17.31 542.02 19.62 540.04 22 538 C20.8642334 533.4569336 18.82716164 531.31588807 15.6875 528.0625 C14.71073151 527.03398218 13.73544936 526.00405059 12.76171875 524.97265625 C12.28492676 524.47870361 11.80813477 523.98475098 11.31689453 523.47583008 C10 522 10 522 8.09765625 519.078125 C7.40542969 518.39234375 6.71320313 517.7065625 6 517 C2.95091764 517.06886443 2.95091764 517.06886443 0.82177734 517.42553711 C-5.05011602 518.16800017 -9.22198531 517.3213348 -14.03027344 513.74804688 C-23.73063732 505.31114188 -32.19994691 495.3374514 -40.56958008 485.61791992 C-42.929053 482.94916637 -44.97148642 480.93309377 -48 479 C-54.08676093 480.36309153 -58.77843493 483.98761642 -63.87890625 487.41796875 C-67 489 -67 489 -69.6875 488.9453125 C-77.04142341 485.93914786 -81.28537146 476.92271963 -84.21875 469.99414062 C-88.81883732 458.25241773 -92.08737763 445.95468031 -95.4375 433.8125 C-95.69660156 432.87422363 -95.95570313 431.93594727 -96.22265625 430.96923828 C-96.45726562 430.09895996 -96.691875 429.22868164 -96.93359375 428.33203125 C-97.2438147 427.18311401 -97.2438147 427.18311401 -97.56030273 426.01098633 C-98 424 -98 424 -98 421 C-94.35729953 421.60481347 -91.34179523 422.61015927 -88.0078125 424.1875 C-87.06325195 424.63407959 -86.11869141 425.08065918 -85.14550781 425.54077148 C-84.14874023 426.02231689 -83.15197266 426.5038623 -82.125 427 C-81.09213867 427.49765869 -80.05927734 427.99531738 -78.99511719 428.50805664 C-70.68318584 432.56605934 -62.78773846 437.02311408 -55 442 C-51.98001948 443.91801113 -48.95876263 445.83400922 -45.9375 447.75 C-45.15584473 448.24669189 -44.37418945 448.74338379 -43.56884766 449.25512695 C-37.14943248 453.31687776 -30.65779557 457.24850307 -24.125 461.125 C-23.19163818 461.68155273 -22.25827637 462.23810547 -21.29663086 462.81152344 C-20.4175708 463.33004883 -19.53851074 463.84857422 -18.6328125 464.3828125 C-17.47096436 465.06947998 -17.47096436 465.06947998 -16.28564453 465.77001953 C-11.27193839 468.54384557 -11.27193839 468.54384557 -5.72265625 468.3203125 C-4.51480469 467.92585938 -3.30695313 467.53140625 -2.0625 467.125 C7.93182823 464.15641207 18.01103029 463.14327516 27.71484375 467.6875 C31.84751859 470.06113888 35.41478723 472.86958357 39 476 C39.83402344 476.72445313 40.66804687 477.44890625 41.52734375 478.1953125 C48.34567826 484.2964309 54.8315013 490.73132592 61.3125 497.1875 C62.16046143 498.03078857 63.00842285 498.87407715 63.88208008 499.74291992 C68.79569955 504.6691099 73.46748359 509.72378911 78 515 C86.0710005 524.29881923 92.0573244 530.85615703 104.4609375 533.21875 C110.40791483 534.53154853 114.97553006 537.66442752 120 541 C120.63180176 541.41781738 121.26360352 541.83563477 121.91455078 542.26611328 C124.8360181 544.20058903 127.75177753 546.14319885 130.65893555 548.09912109 C137.68283568 552.82149879 144.79051755 557.40507587 151.9597168 561.90380859 C156.13259509 564.52241495 160.26684348 567.15247718 164.28515625 570.00390625 C172.94354445 576.034789 180.0909928 578.15738943 190.53515625 579.390625 C200.76001052 580.64044913 209.26785471 585.51966642 217.91918945 590.78125 C223.23416237 594.0096475 228.65022147 596.97949233 234.14672852 599.88745117 C254.83260318 610.83260318 254.83260318 610.83260318 263 619 C265.40237585 619.30136732 265.40237585 619.30136732 268.24365425 619.24609566 C269.36232293 619.25007775 270.48099161 619.25405985 271.63355935 619.25816262 C273.492476 619.24942409 273.492476 619.24942409 275.38894653 619.24050903 C277.35161494 619.24307231 277.35161494 619.24307231 279.35393322 619.24568737 C282.997962 619.25017672 286.64187406 619.24213557 290.28588796 619.23213124 C294.21090657 619.22352179 298.13591821 619.22641512 302.0609436 619.22793579 C308.8653635 619.22898623 315.66974515 619.22269303 322.47415543 619.21146011 C332.31227439 619.1952296 342.1503748 619.18999962 351.98850571 619.18748413 C367.9488906 619.18310317 383.90925509 619.16978322 399.86962891 619.15087891 C415.37678932 619.13253047 430.88394421 619.1183689 446.39111328 619.10986328 C447.34642642 619.10933783 448.30173956 619.10881239 449.28600158 619.10827102 C454.07836308 619.10566101 458.87072461 619.10313358 463.66308618 619.10064721 C503.44207174 619.07990223 543.22103453 619.04466582 583 619 C582.1677196 618.74289198 582.1677196 618.74289198 581.31862545 618.48058987 C575.42488577 616.65893626 569.53310642 614.8310391 563.64231873 612.99986267 C561.4577957 612.32163556 559.2728138 611.64488431 557.08732605 610.96977234 C524.16897646 600.79791762 492.59921646 588.8786327 462 573 C461.0709082 572.52224121 460.14181641 572.04448242 459.18457031 571.55224609 C444.02441917 563.69263851 430.05808287 553.92651874 416.0625 544.1875 C415.12510986 543.54087402 414.18771973 542.89424805 413.22192383 542.22802734 C411.12796312 540.78000996 409.04454959 539.31657738 406.97387695 537.83544922 C397.81836099 531.55860488 388.71355203 528.09602335 378.125 524.9375 C376.55018101 524.45050452 374.97595708 523.96158043 373.40234375 523.47070312 C369.60801881 522.29157059 365.80672607 521.13842718 362 520 C361.34 523.63 360.68 527.26 360 531 C345.96974515 525.5247786 333.62576097 517.96938415 321.1875 509.5625 C320.03563028 508.78888286 318.88352565 508.01561538 317.73120117 507.24267578 C314.1486352 504.83655641 310.57331254 502.41983444 307 500 C306.39482544 499.5902594 305.78965088 499.1805188 305.1661377 498.75836182 C297.43347879 493.52112839 289.71193056 488.26771764 282 483 C283.89582374 487.01583789 286.48157297 490.30433411 289.25 493.75 C290.24155217 494.9968659 291.23244158 496.24425914 292.22265625 497.4921875 C292.69977051 498.09256836 293.17688477 498.69294922 293.66845703 499.31152344 C296.17745624 502.49308533 298.58998536 505.74322346 301 509 C297.34067875 509 296.57915327 508.17798181 293.74609375 505.95703125 C292.90095215 505.30202637 292.05581055 504.64702148 291.18505859 503.97216797 C290.27836426 503.25947754 289.37166992 502.54678711 288.4375 501.8125 C286.52354474 500.33020972 284.60815721 498.84976713 282.69140625 497.37109375 C281.73121582 496.62972168 280.77102539 495.88834961 279.78173828 495.12451172 C275.14920094 491.58647943 270.41727857 488.19272776 265.67602539 484.80273438 C261.82894878 482.04880452 258.00563508 479.26992778 254.21875 476.43359375 C246.07119191 470.33769119 237.94035127 464.44687912 229.16162109 459.2824707 C220.97417768 454.39627569 217.98841706 449.54360437 214.875 440.8125 C214.54113281 439.91724609 214.20726562 439.02199219 213.86328125 438.09960938 C211.15916975 430.7560909 211.15916975 430.7560909 210.43798828 427.33032227 C209.30489748 422.1213476 208.0211475 419.50250006 203.5703125 416.42578125 C201.77334084 415.35693015 199.957021 414.32009559 198.125 413.3125 C197.18060059 412.75925049 196.23620117 412.20600098 195.26318359 411.63598633 C189.23472216 408.13440947 183.10057306 404.81996613 176.7890625 401.85546875 C170.54512772 397.70159057 166.3748202 391.26359441 162.11767578 385.20019531 C155.32636512 375.5490738 147.96716257 367.62710601 139 360 C137.58263249 358.75079474 136.16583667 357.50094003 134.75 356.25 C133.84894531 355.47269531 133.84894531 355.47269531 132.9296875 354.6796875 C130.55018633 352.60846179 128.21396354 350.49186611 125.875 348.375 C122.3154386 345.16150707 118.71560689 342.03115299 115 339 C115.79669679 345.23349579 117.04846816 351.3464481 118.3125 357.5 C120.20630617 366.8328301 121.95069906 376.17773001 123.5390625 385.56713867 C124.36081637 390.4020993 125.22481492 395.22300427 126.171875 400.03515625 C126.45792603 401.49066895 126.45792603 401.49066895 126.74975586 402.97558594 C127.11714271 404.82766195 127.49010453 406.67864327 127.86938477 408.52832031 C128.03237061 409.35041992 128.19535645 410.17251953 128.36328125 411.01953125 C128.51063721 411.74245361 128.65799316 412.46537598 128.80981445 413.21020508 C129 415 129 415 128 417 C127.59797363 416.55084229 127.19594727 416.10168457 126.78173828 415.63891602 C124.92089448 413.58933328 123.02410923 411.57665142 121.125 409.5625 C120.49335938 408.85544922 119.86171875 408.14839844 119.2109375 407.41992188 C115.49681658 403.53866551 113.28720537 401.64838635 107.8046875 401.52734375 C103.41034824 401.37306815 103.41034824 401.37306815 101.50048828 399.63671875 C100.15020058 397.48780219 99.07864609 395.29785105 98 393 C96.90207031 390.98747029 95.79734007 388.97864241 94.6875 386.97265625 C93.4551142 384.67091101 92.22598345 382.36764065 91 380.0625 C90.34142643 378.82968965 89.68273314 377.59694325 89.02392578 376.36425781 C84.03290914 367.0100225 79.12875353 357.61167351 74.30078125 348.17211914 C71.43397357 342.60270898 68.40290404 337.26016668 65 332 C62.03 332.33 59.06 332.66 56 333 C55.65020533 312.26494954 56.73391686 291.68665369 58 271 C50.26851408 275.23112445 42.84048439 279.31555444 36.3125 285.3125 C35.69729492 285.85938477 35.08208984 286.40626953 34.44824219 286.96972656 C29.48377792 291.42924273 24.77654267 296.12520072 20.171875 300.953125 C18 303 18 303 15 304 C14.32815382 301.89748139 13.66269032 299.79292237 13 297.6875 C12.62875 296.51574219 12.2575 295.34398437 11.875 294.13671875 C11 291 11 291 11 288 C-0.59745911 291.65105194 -7.26015412 297.90472554 -14.18432617 307.59472656 C-22.05447075 318.45370711 -31.87576627 327.59969449 -42.37890625 335.88671875 C-47.11322616 339.70380827 -51.52212827 343.88849959 -56 348 C-57.47329996 349.33981305 -58.95183741 350.67390858 -60.4375 352 C-61.03433594 352.53625 -61.63117188 353.0725 -62.24609375 353.625 C-64.07403758 355.05804282 -65.89214713 356.03641012 -68 357 C-64.45597141 352.81986372 -60.8716456 348.67561286 -57.25 344.5625 C-56.49203125 343.69753906 -55.7340625 342.83257812 -54.953125 341.94140625 C-53 340 -53 340 -51 340 C-50.74605469 339.41734375 -50.49210937 338.8346875 -50.23046875 338.234375 C-48.86679667 335.75811967 -47.35774797 334.19479374 -45.3125 332.25 C-42.00077692 329.02151592 -38.91926846 325.69355784 -35.90625 322.1875 C-33.69054352 319.64488601 -31.40901408 317.16889802 -29.125 314.6875 C-13.29619517 299.10514273 -13.29619517 299.10514273 -5.15234375 280.30859375 C-6.13812926 273.14096039 -7.91742671 266.10160112 -9.5625 259.0625 C-10.05687165 256.93273249 -10.54977625 254.80264629 -11.04026794 252.67198181 C-11.48152971 250.75725284 -11.92729068 248.8435624 -12.37329102 246.92993164 C-13 244 -13 244 -13 242 C-14.15628906 242.66708984 -14.15628906 242.66708984 -15.3359375 243.34765625 C-16.33882813 243.91355469 -17.34171875 244.47945312 -18.375 245.0625 C-19.87160156 245.91521484 -19.87160156 245.91521484 -21.3984375 246.78515625 C-22.25695312 247.18605469 -23.11546875 247.58695313 -24 248 C-24.66 247.67 -25.32 247.34 -26 247 C-25.38253906 245.87207031 -24.76507813 244.74414062 -24.12890625 243.58203125 C-12.91139487 222.84703706 -2.10272667 200.79904277 0 177 C-0.845625 177.85722656 -1.69125 178.71445312 -2.5625 179.59765625 C-8.03424812 185.12107795 -13.48138138 190.59398058 -19.41015625 195.6328125 C-21.37657886 197.32383931 -23.20443433 199.12961909 -25 201 C-25.66 200.67 -26.32 200.34 -27 200 C-26.31035156 199.26136719 -25.62070312 198.52273438 -24.91015625 197.76171875 C-20.23864743 192.72809692 -15.66867628 187.67769549 -11.375 182.3125 C-7.79704228 177.85778147 -3.96889576 173.82906401 0.15234375 169.875 C2.17842158 167.93701846 2.17842158 167.93701846 4 165 C4.66 165 5.32 165 6 165 C7.35097374 166.51151546 8.62927345 168.08813313 9.875 169.6875 C13.37967575 174.07957762 17.0161853 178.23065403 20.875 182.3125 C26.56299367 188.36857231 31.68090861 194.77393212 36.73486328 201.36181641 C38.68813208 203.89103941 40.68738331 206.38276321 42.6875 208.875 C43.33074219 209.67679688 43.97398437 210.47859375 44.63671875 211.3046875 C45.31154297 212.14386719 45.31154297 212.14386719 46 213 C42.02658303 205.99055669 37.8456435 199.15707701 33.5 192.375 C28.56250304 184.64763579 23.92897298 176.77119463 19.375 168.8125 C4.98667997 143.38098718 4.98667997 143.38098718 -18 126 C-16.62448057 121.32748812 -14.61313973 117.34244062 -12.125 113.1875 C-3.44623894 98.23901515 -0.19186817 82.82985037 3 66 C3.66 66 4.32 66 5 66 C6.75395405 68.0036489 8.3850238 70.0130012 10 72.125 C10.48186768 72.74648926 10.96373535 73.36797852 11.46020508 74.00830078 C16.48851839 80.54158146 21.27013315 87.24891022 26 94 C25.2529385 89.11432827 23.49687907 84.68717071 21.75390625 80.08984375 C21.42675629 79.21791382 21.09960632 78.34598389 20.76254272 77.44763184 C20.06148681 75.57922505 19.35900856 73.71135144 18.65524292 71.84396362 C17.55598876 68.92018149 16.46610876 65.993071 15.37915039 63.06469727 C10.99579896 51.24805569 10.99579896 51.24805569 6.44444275 39.49552917 C1.05446278 25.87157754 -2.83053721 14.6567543 0 0 Z " fill="#7DB2C7" transform="translate(295,88)"/>
<path d="M0 0 C2.39462699 6.14065297 4.44699693 12.32976334 6.18359375 18.6875 C6.36806061 19.36192139 6.55252747 20.03634277 6.74258423 20.73120117 C7.50117321 23.51979446 8.25375619 26.30989894 8.99731445 29.10253906 C11.86008766 39.81388431 15.2824633 49.8899742 21.0625 59.4375 C21.52785156 60.21996094 21.99320313 61.00242187 22.47265625 61.80859375 C24.16830773 64.241485 25.6487761 66.17510512 28 68 C33.50738805 68.10535873 38.6864051 63.79620557 43.20507812 60.97460938 C43.89150391 60.56662109 44.57792969 60.15863281 45.28515625 59.73828125 C45.90269775 59.35712158 46.52023926 58.97596191 47.15649414 58.58325195 C49 58 49 58 51.07275391 58.76000977 C53.73525604 60.47306378 55.97567961 62.48980061 58.3125 64.625 C59.66794922 65.85089844 59.66794922 65.85089844 61.05078125 67.1015625 C65.31900269 71.16871296 69.07162123 75.72039068 72.87524414 80.21679688 C81.04190591 90.66596531 81.04190591 90.66596531 92.5 95.8984375 C94.68865271 95.92437457 96.83631386 95.81490825 99.02026367 95.67895508 C102.98389975 95.53926951 105.34520894 95.84113281 108.30078125 98.42578125 C111.1651727 101.39766953 113.56833946 104.67069007 116 108 C117.23777765 109.34468743 118.48531909 110.68058347 119.75 112 C122 115 122 115 121.83203125 117.015625 C120.42643167 120.367947 117.84885323 121.81789966 115 124 C115.33 124.99 115.66 125.98 116 127 C118.08947133 127.85419874 118.08947133 127.85419874 120.6640625 128.31640625 C121.62183594 128.52330078 122.57960938 128.73019531 123.56640625 128.94335938 C125.08041016 129.24983398 125.08041016 129.24983398 126.625 129.5625 C129.5493924 130.17987173 132.47249379 130.80195484 135.39331055 131.43603516 C136.96405991 131.77587135 138.53783991 132.10261705 140.11645508 132.40380859 C144.88916342 133.46697539 146.74901762 135.51706314 149.4375 139.5 C150.45650391 140.96953125 150.45650391 140.96953125 151.49609375 142.46875 C153 145 153 145 153 147 C154.258125 147.350625 155.51625 147.70125 156.8125 148.0625 C165.52028479 151.01016628 172.59602048 156.65764516 179.8125 162.1875 C187.6687106 168.1940305 195.83910553 173.70222493 204.0625 179.1875 C204.6886319 179.60679779 205.31476379 180.02609558 205.95986938 180.45809937 C213.5659685 185.54513152 221.24237681 190.4493062 229.16285706 195.03569031 C232.22247472 196.82820229 234.46350653 198.46350653 237 201 C94.11 201 -48.78 201 -196 201 C-196 172.62 -196 144.24 -196 115 C-172.17541921 98.69897104 -172.17541921 98.69897104 -161.88232422 92.20166016 C-160.12405716 91.07919706 -158.39129624 89.92539178 -156.66015625 88.76171875 C-148.64305584 83.6130275 -148.64305584 83.6130275 -142.75 84.3125 C-134.65917198 84.86729964 -129.16882288 78.57072437 -123.26220703 73.77587891 C-119.28898309 70.65681664 -115.11553341 67.83538463 -110.9375 65 C-110.15246094 64.46093018 -109.36742188 63.92186035 -108.55859375 63.36645508 C-106.38703656 61.88722118 -104.20005932 60.43641743 -102 59 C-101.41589355 58.60901123 -100.83178711 58.21802246 -100.22998047 57.81518555 C-95.45543183 54.81981227 -90.70359006 53.81134146 -85.25 52.8125 C-83.56745764 52.48697018 -81.8851547 52.16019976 -80.203125 51.83203125 C-79.46739258 51.69514893 -78.73166016 51.5582666 -77.97363281 51.41723633 C-74.11740484 50.63343367 -74.11740484 50.63343367 -71.4921875 47.84765625 C-70.95851563 46.92855469 -70.42484375 46.00945313 -69.875 45.0625 C-62.8274471 33.78349712 -55.146168 27.25753872 -43.44433594 21.25537109 C-40.75620592 19.87479134 -38.08494346 18.46442934 -35.4140625 17.05078125 C-29.62778646 13.99778143 -23.81961418 10.9888976 -18 8 C-17.15614746 7.5663916 -16.31229492 7.1327832 -15.44287109 6.68603516 C-13.1941725 5.53446356 -10.94204219 4.390081 -8.6875 3.25 C-8.03007812 2.91476318 -7.37265625 2.57952637 -6.6953125 2.23413086 C-2.23547919 0 -2.23547919 0 0 0 Z " fill="#2E5F7A" transform="translate(196,508)"/>
<path d="M0 0 C3.64270047 0.60481347 6.65820477 1.61015927 9.9921875 3.1875 C11.40902832 3.85736938 11.40902832 3.85736938 12.85449219 4.54077148 C13.85125977 5.02231689 14.84802734 5.5038623 15.875 6 C16.90786133 6.49765869 17.94072266 6.99531738 19.00488281 7.50805664 C27.31681416 11.56605934 35.21226154 16.02311408 43 21 C46.01998052 22.91801113 49.04123737 24.83400922 52.0625 26.75 C52.84415527 27.24669189 53.62581055 27.74338379 54.43115234 28.25512695 C60.85056752 32.31687776 67.34220443 36.24850307 73.875 40.125 C74.80836182 40.68155273 75.74172363 41.23810547 76.70336914 41.81152344 C78.02195923 42.58931152 78.02195923 42.58931152 79.3671875 43.3828125 C80.14175293 43.84059082 80.91631836 44.29836914 81.71435547 44.77001953 C86.72806161 47.54384557 86.72806161 47.54384557 92.27734375 47.3203125 C94.08912109 46.72863281 94.08912109 46.72863281 95.9375 46.125 C105.93182823 43.15641207 116.01103029 42.14327516 125.71484375 46.6875 C129.84751859 49.06113888 133.41478723 51.86958357 137 55 C137.83402344 55.72445312 138.66804687 56.44890625 139.52734375 57.1953125 C146.34567826 63.2964309 152.8315013 69.73132592 159.3125 76.1875 C160.16046143 77.03078857 161.00842285 77.87407715 161.88208008 78.74291992 C166.79569955 83.6691099 171.46748359 88.72378911 176 94 C184.0710005 103.29881923 190.0573244 109.85615703 202.4609375 112.21875 C208.40791483 113.53154853 212.97553006 116.66442752 218 120 C218.94770264 120.62672607 218.94770264 120.62672607 219.91455078 121.26611328 C222.8360181 123.20058903 225.75177753 125.14319885 228.65893555 127.09912109 C235.68283568 131.82149879 242.79051755 136.40507587 249.9597168 140.90380859 C254.13259509 143.52241495 258.26684348 146.15247718 262.28515625 149.00390625 C270.94354445 155.034789 278.0909928 157.15738943 288.53515625 158.390625 C298.76001052 159.64044913 307.26785471 164.51966642 315.91918945 169.78125 C321.23416237 173.0096475 326.65022147 175.97949233 332.14672852 178.88745117 C352.83260318 189.83260318 352.83260318 189.83260318 361 198 C363.43682785 198.30146335 363.43682785 198.30146335 366.3217411 198.24609566 C367.45782676 198.25007775 368.59391242 198.25405985 369.76442492 198.25816262 C371.65252369 198.24942409 371.65252369 198.24942409 373.57876587 198.24050903 C374.92105293 198.24138048 376.26333965 198.24313034 377.60562456 198.24568737 C381.30666053 198.25017688 385.00758159 198.24213533 388.70860291 198.23213124 C392.69497179 198.22352203 396.68133379 198.2264151 400.66770935 198.22793579 C407.57853363 198.22898625 414.48932024 198.22269288 421.40013504 198.21146011 C431.39209942 198.19522981 441.38404553 198.18999964 451.37602167 198.18748413 C467.5859779 198.18310314 483.79591405 198.16978309 500.00585938 198.15087891 C515.75553283 198.13253055 531.50520083 198.11836894 547.25488281 198.10986328 C548.22513093 198.10933783 549.19537904 198.10881239 550.19502862 198.10827102 C555.06231047 198.10566101 559.92959237 198.10313358 564.79687428 198.10064721 C605.19793017 198.07990213 645.59896394 198.04466563 686 198 C686.33 198.66 686.66 199.32 687 200 C629.93697877 200.32081417 572.87404512 200.56735081 515.81029868 200.71491461 C509.06534402 200.73237574 502.3203913 200.75052771 495.57543945 200.76904297 C494.90427286 200.7708736 494.23310626 200.77270422 493.54160128 200.77459032 C471.82777549 200.83413872 450.11446324 200.93921299 428.40094795 201.06816109 C405.4333336 201.2043075 382.46592325 201.2880175 359.49789816 201.31723893 C345.75330055 201.33639849 332.01017813 201.39679116 318.26603491 201.51083054 C308.82651328 201.5851382 299.38774834 201.60713367 289.94795584 201.58901928 C284.51030598 201.58009784 279.07522363 201.59324997 273.63803673 201.66887665 C232.56263818 202.21191585 232.56263818 202.21191585 215.2592603 187.83127809 C212.07624771 185.25123842 208.68428234 183.03391502 205.26330036 180.78460491 C195.96339344 174.64835906 186.92390974 168.06109884 177.92919922 161.48632812 C175.72946567 159.878471 173.52332855 158.28006453 171.3125 156.6875 C170.59054443 156.16663818 169.86858887 155.64577637 169.12475586 155.10913086 C165.17843944 152.32660507 161.49094571 150.1965054 156.9375 148.5 C151.12249717 146.20390962 148.92920948 142.00593782 146.046875 136.64453125 C143.41264183 133.24114222 141.04069184 132.73471323 137 132 C135.19108654 131.61870107 133.38251879 131.23576002 131.57421875 130.8515625 C128.60338745 130.22989961 125.63297202 129.61432614 122.65429688 129.03125 C121.69974609 128.82757812 120.74519531 128.62390625 119.76171875 128.4140625 C118.89506592 128.2382666 118.02841309 128.0624707 117.13549805 127.88134766 C115 127 115 127 113 123 C115.31 121.02 117.62 119.04 120 117 C118.8642334 112.4569336 116.82716164 110.31588807 113.6875 107.0625 C112.71073151 106.03398218 111.73544936 105.00405059 110.76171875 103.97265625 C110.28492676 103.47870361 109.80813477 102.98475098 109.31689453 102.47583008 C108 101 108 101 106.09765625 98.078125 C105.40542969 97.39234375 104.71320313 96.7065625 104 96 C100.95091764 96.06886443 100.95091764 96.06886443 98.82177734 96.42553711 C92.94988398 97.16800017 88.77801469 96.3213348 83.96972656 92.74804688 C74.26936268 84.31114188 65.80005309 74.3374514 57.43041992 64.61791992 C55.070947 61.94916637 53.02851358 59.93309377 50 58 C43.91323907 59.36309153 39.22156507 62.98761642 34.12109375 66.41796875 C31 68 31 68 28.3125 67.9453125 C20.95857659 64.93914786 16.71462854 55.92271963 13.78125 48.99414062 C9.18116268 37.25241773 5.91262237 24.95468031 2.5625 12.8125 C2.30339844 11.87422363 2.04429687 10.93594727 1.77734375 9.96923828 C1.54273438 9.09895996 1.308125 8.22868164 1.06640625 7.33203125 C0.7561853 6.18311401 0.7561853 6.18311401 0.43969727 5.01098633 C0 3 0 3 0 0 Z " fill="#6BA3B3" transform="translate(197,509)"/>
<path d="M0 0 C4.76192485 1.62737626 8.65282826 4.23857708 12.8125 7 C17.84435121 10.30934304 22.89196056 13.56515995 28.04370117 16.68481445 C43.39825831 26.02631777 57.13167868 37.62390757 71 49 C73.72665269 51.23225962 76.45583768 53.46137365 79.1875 55.6875 C80.18704712 56.50238892 80.18704712 56.50238892 81.20678711 57.33374023 C85.29226811 60.65127746 89.43082615 63.88396721 93.625 67.0625 C100.07206676 71.97798747 106.20649826 77.21872708 112.31933594 82.54101562 C115.20030911 85.04198827 118.10061455 87.52042027 121 90 C120.01 90.495 120.01 90.495 119 91 C116.67929019 89.91972372 114.52405256 88.77741835 112.3125 87.5 C111.6205957 87.10562744 110.92869141 86.71125488 110.21582031 86.30493164 C100.74456431 80.81164439 91.64058461 74.72077194 82.51953125 68.67089844 C80.43357114 67.28753497 78.34361898 65.91078464 76.25 64.5390625 C69.69002309 60.21699438 63.31408743 55.67341905 57 51 C59.98627393 54.56896152 62.96343983 58.01831343 66.3125 61.25 C69.16261093 64.0442264 71.64579525 66.99766677 74.125 70.125 C78.18378262 75.17762836 82.57316064 79.72913198 87.21923828 84.23291016 C90.07081575 87.00998295 92.77058873 89.84479079 95.3671875 92.86328125 C99.19770551 97.29870146 103.32069379 101.39545777 107.5 105.5 C112.2951571 110.20937611 116.9276763 114.96588331 121.31152344 120.06201172 C124.07362947 123.23228321 126.98328868 126.26094942 129.875 129.3125 C134.65185673 134.39701443 139.24699613 139.55246356 143.6015625 145.0078125 C145.46909487 147.33766559 147.35861761 149.63911287 149.2734375 151.9296875 C156.87991171 161.04306536 164.10690845 170.3356043 171 180 C170.67 180.66 170.34 181.32 170 182 C157.71941629 172.64801336 145.86788208 163.03315599 134.59228516 152.48339844 C132.16240772 150.21968558 129.7048507 147.98656712 127.25 145.75 C125.70784617 144.33476412 124.16764437 142.91744259 122.62841797 141.49902344 C121.5379827 140.49523445 120.44584239 139.4932947 119.35205078 138.49316406 C108.2279489 128.29896019 97.55113025 117.65856007 86.875 107 C86.14463531 106.27222351 85.41427063 105.54444702 84.66177368 104.7946167 C82.53976426 102.67853443 80.42160039 100.55867962 78.3046875 98.4375 C77.67289078 97.80768219 77.04109406 97.17786438 76.39015198 96.52896118 C72.63027789 92.74980665 69.08111914 88.85702436 65.64942932 84.77653503 C62.83703223 81.74741344 59.49694586 79.57657726 56.0625 77.3125 C47.91692507 71.75955702 40.2309125 65.76145957 32.70141602 59.40063477 C31.13598541 58.11194552 29.49990005 56.91037516 27.859375 55.71875 C24.03774395 52.08506802 22.16816616 48.16758216 19.9375 43.4375 C19.48068848 42.49672607 19.02387695 41.55595215 18.55322266 40.58666992 C17.01557156 37.40020911 15.50509717 34.2019617 14 31 C13.41524666 29.76007 12.83044712 28.52016179 12.24560547 27.28027344 C1.46193384 4.38580152 1.46193384 4.38580152 0 0 Z " fill="#659AB1" transform="translate(456,394)"/>
<path d="M0 0 C2.66250214 1.71305401 4.9029257 3.72979084 7.23974609 5.86499023 C8.59519531 7.09088867 8.59519531 7.09088867 9.97802734 8.34155273 C14.24624878 12.4087032 17.99886732 16.96038091 21.80249023 21.45678711 C29.969152 31.90595554 29.969152 31.90595554 41.42724609 37.13842773 C43.6158988 37.16436481 45.76355996 37.05489849 47.94750977 36.91894531 C51.91114584 36.77925974 54.27245503 37.08112304 57.22802734 39.66577148 C60.09241879 42.63765976 62.49558555 45.9106803 64.92724609 49.23999023 C66.16502374 50.58467766 67.41256519 51.92057371 68.67724609 53.23999023 C70.92724609 56.23999023 70.92724609 56.23999023 70.82177734 58.22436523 C69.12113765 62.05637434 65.26914252 63.90596734 61.92724609 66.23999023 C61.2977002 65.24459229 60.6681543 64.24919434 60.01953125 63.22363281 C56.32271291 58.05683941 52.46927076 53.26440471 46.17175293 51.4430542 C38.25676543 50.29407327 30.27120639 50.68203985 22.30224609 50.92749023 C19.79580026 50.95362965 17.28926908 50.97254895 14.78271484 50.984375 C9.8114339 51.01354748 4.84219298 51.07401254 -0.12841797 51.15991211 C-8.70267007 51.28760935 -17.25399003 51.06959211 -25.82196045 50.75845337 C-29.34261602 50.63181211 -32.8639214 50.52963234 -36.38525391 50.42358398 C-38.28110356 50.36289368 -40.17694443 50.30192267 -42.07275391 50.23999023 C-40.7880515 47.3948918 -39.92888406 46.11385777 -37.50634766 43.98999023 C-31.53162059 38.6953134 -28.854511 34.26701069 -28.12744141 26.15795898 C-27.79778544 19.18327283 -27.82848693 12.2170909 -28.07275391 5.23999023 C-26.90667603 6.22866089 -26.90667603 6.22866089 -25.71704102 7.23730469 C-23.31872626 9.46204463 -23.31872626 9.46204463 -20.76416016 9.28295898 C-16.1538663 7.49638648 -12.05127278 4.82696419 -7.86767578 2.21459961 C-6.83803711 1.60261719 -6.83803711 1.60261719 -5.78759766 0.97827148 C-5.17005615 0.59711182 -4.55251465 0.21595215 -3.91625977 -0.17675781 C-2.07275391 -0.76000977 -2.07275391 -0.76000977 0 0 Z " fill="#4A7F98" transform="translate(247.07275390625,566.760009765625)"/>
<path d="M0 0 C3.45195767 1.4258086 5.1014256 3.09746334 7.25 6.125 C8.03117187 7.21167969 8.03117187 7.21167969 8.828125 8.3203125 C9.40820312 9.15175781 9.40820312 9.15175781 10 10 C9.34 10.99 8.68 11.98 8 13 C7.236875 13.12375 6.47375 13.2475 5.6875 13.375 C-0.28307457 14.76350571 -3.85022873 21.16321335 -7.125 25.9765625 C-13.21400603 35.79508472 -17.74378567 46.50500779 -22.375 57.0625 C-23.01852417 58.52562622 -23.01852417 58.52562622 -23.67504883 60.01831055 C-25.81189343 64.96021676 -27.68168786 69.77745575 -29 75 C-28.195625 75.268125 -27.39125 75.53625 -26.5625 75.8125 C-25.2940625 76.4003125 -25.2940625 76.4003125 -24 77 C-23 80 -23 80 -24.02880859 82.56860352 C-27.18470385 88.53169471 -27.18470385 88.53169471 -28.41162109 90.78540039 C-29.35335049 92.52256417 -30.26881876 94.273883 -31.18359375 96.02539062 C-36.371832 105.65832979 -42.73441231 113.45165068 -51 120.625 C-52.11375 121.60339844 -52.11375 121.60339844 -53.25 122.6015625 C-55 124 -55 124 -56 124 C-55.07198186 92.7033883 -48.6959449 64.63984763 -39 35 C-38.4906189 33.39560059 -38.4906189 33.39560059 -37.97094727 31.75878906 C-37.64151123 30.77362305 -37.3120752 29.78845703 -36.97265625 28.7734375 C-36.68914307 27.90895996 -36.40562988 27.04448242 -36.11352539 26.15380859 C-34.39281734 22.82557215 -32.01605126 21.86902498 -28.57421875 20.69140625 C-27.72472656 20.46324219 -26.87523437 20.23507813 -26 20 C-25.05769531 19.74089844 -24.11539062 19.48179687 -23.14453125 19.21484375 C-21.29625832 18.71847895 -19.44097955 18.24707267 -17.578125 17.80859375 C-11.16125114 15.79602877 -8.31980463 12.17754848 -4.6875 6.8125 C-4.23310547 6.15830078 -3.77871094 5.50410156 -3.31054688 4.83007812 C-2.19828613 3.22608105 -1.09792522 1.61384348 0 0 Z " fill="#5994AF" transform="translate(289,144)"/>
<path d="M0 0 C0.99 0.495 0.99 0.495 2 1 C1.62375488 1.45681152 1.24750977 1.91362305 0.85986328 2.38427734 C-5.32968643 10.10623537 -10.68072669 18.3728179 -16.125 26.625 C-17.59464748 28.84713409 -19.06533826 31.06856752 -20.537323 33.28915405 C-21.44602739 34.6605518 -22.35329909 36.03290046 -23.25881958 37.40640259 C-24.08934706 38.6619005 -24.9251752 39.91391122 -25.76676941 41.16201782 C-26.6103634 42.41929342 -27.43725568 43.6878934 -28.24946594 44.96566772 C-30.13595892 47.82440559 -31.35836874 49.67366022 -34.45288086 51.24755859 C-35.30245361 51.42109863 -36.15202637 51.59463867 -37.02734375 51.7734375 C-37.98753418 51.98452148 -38.94772461 52.19560547 -39.93701172 52.41308594 C-40.94779785 52.60676758 -41.95858398 52.80044922 -43 53 C-44.02496582 53.22204102 -45.04993164 53.44408203 -46.10595703 53.67285156 C-49.25309252 54.35138706 -52.40566691 54.99324341 -55.5625 55.625 C-57.68931475 56.05214271 -59.81564559 56.4817044 -61.94140625 56.9140625 C-63.32888062 57.1917749 -63.32888062 57.1917749 -64.74438477 57.47509766 C-67.01774753 57.91185274 -67.01774753 57.91185274 -69 59 C-63.3382478 66.57818722 -57.67709449 74.15345702 -51.875 81.625 C-46.72818615 88.28410818 -41.84729382 95.12096813 -37 102 C-37.33 102.66 -37.66 103.32 -38 104 C-38.4846875 103.50371094 -38.969375 103.00742187 -39.46875 102.49609375 C-43.43223082 98.47925838 -47.47531115 94.64675348 -51.75 90.96484375 C-54.45574976 88.60201019 -57.10566701 86.18097086 -59.75 83.75 C-60.51304443 83.04870972 -60.51304443 83.04870972 -61.29150391 82.33325195 C-62.33683095 81.37184553 -63.38191321 80.4101729 -64.42675781 79.44824219 C-66.99062597 77.08808298 -69.557239 74.73092279 -72.125 72.375 C-72.61758301 71.92294189 -73.11016602 71.47088379 -73.61767578 71.00512695 C-77.73259669 67.23391015 -81.87960544 63.49931746 -86.0390625 59.77734375 C-87.39086769 58.55210199 -88.70992352 57.29007648 -90 56 C-89.9609375 54.02319336 -89.9609375 54.02319336 -89 52 C-86.6640625 50.72875977 -86.6640625 50.72875977 -83.625 49.62890625 C-77.40615893 47.21873779 -71.76488578 44.27360225 -66 40.9375 C-64.51632935 40.08768555 -64.51632935 40.08768555 -63.00268555 39.22070312 C-59.99531815 37.49135266 -56.99600036 35.74895962 -54 34 C-53.11650879 33.48453613 -52.23301758 32.96907227 -51.32275391 32.43798828 C-37.15112063 24.13122676 -23.38100149 15.23655866 -9.703125 6.14453125 C-8.42711659 5.30463697 -7.15107712 4.46478988 -5.875 3.625 C-4.77929688 2.89539063 -3.68359375 2.16578125 -2.5546875 1.4140625 C-1.71164062 0.94742187 -0.86859375 0.48078125 0 0 Z " fill="#619BB1" transform="translate(795,467)"/>
<path d="M0 0 C1.85772162 0.08984301 3.71247985 0.24611861 5.5625 0.4375 C6.57441406 0.53933594 7.58632812 0.64117187 8.62890625 0.74609375 C9.41136719 0.82988281 10.19382812 0.91367187 11 1 C10.54238273 4.96763911 10.06328333 8.92887691 9.52734375 12.88671875 C9.21991034 15.15947521 8.98394175 17.35069141 8.87890625 19.64453125 C8.1768943 27.36666266 1.29196833 31.92925712 -4.27929688 36.58056641 C-5.13104492 37.28318604 -5.13104492 37.28318604 -6 38 C-6.97453125 38.80824219 -7.9490625 39.61648438 -8.953125 40.44921875 C-10.75975583 41.92807513 -12.5734717 43.3983229 -14.39453125 44.859375 C-16.96978882 46.97517882 -19.42384918 49.17975721 -21.875 51.4375 C-27.61947379 56.68164865 -33.78543267 61.33420415 -40 66 C-40.495 65.01 -40.495 65.01 -41 64 C-40.00390625 61.3984375 -40.00390625 61.3984375 -38.5625 58.375 C-38.08941406 57.37210937 -37.61632812 56.36921875 -37.12890625 55.3359375 C-36.75636719 54.56507813 -36.38382813 53.79421875 -36 53 C-36.54938232 53.34780518 -37.09876465 53.69561035 -37.66479492 54.05395508 C-40.17198256 55.6407392 -42.67973581 57.22662724 -45.1875 58.8125 C-46.05181641 59.35970703 -46.91613281 59.90691406 -47.80664062 60.47070312 C-51.84594089 63.02428375 -55.88382737 65.57120249 -60 68 C-58.51258212 64.65140281 -56.57900487 62.20170693 -54.1875 59.4375 C-49.27003327 53.5333571 -44.97513307 47.27813227 -40.6940918 40.90209961 C-30.74781219 26.10787275 -30.74781219 26.10787275 -24.125 21.4375 C-15.41541439 15.09139096 -7.6124112 7.6124112 0 0 Z " fill="#6BA2BA" transform="translate(172,384)"/>
<path d="M0 0 C2.7863837 1.34058561 5.3739367 2.82603481 7.96484375 4.51171875 C19.83286953 12.10929748 31.97101538 18.79071075 44.57592773 25.0612793 C45.18704407 25.36864517 45.7981604 25.67601105 46.42779541 25.99269104 C48.09662295 26.8312592 49.77021264 27.66033095 51.4440918 28.48876953 C54 30 54 30 56 33 C55.90081079 38.95135272 54.45380386 44.23601858 52.625 49.875 C52.41609131 50.52952148 52.20718262 51.18404297 51.99194336 51.85839844 C50.84552658 55.2307781 49.83624431 57.76085976 47 60 C41.36832346 54.60796927 36.23516849 49.01496855 31.3671875 42.92578125 C29.32980338 40.40762826 27.23680702 37.95295567 25.11132812 35.50927734 C18.37257917 27.72877774 12.38004466 19.45749052 6.45410156 11.04785156 C5.48398442 9.68160868 4.50146338 8.32408998 3.50683594 6.97558594 C0 2.20697909 0 2.20697909 0 0 Z " fill="#6DA0B5" transform="translate(399,360)"/>
<path d="M0 0 C0.84820312 0.4846875 1.69640625 0.969375 2.5703125 1.46875 C3.13032959 1.7886792 3.69034668 2.1086084 4.26733398 2.43823242 C5.51972967 3.15405169 6.77183958 3.87037118 8.02368164 4.5871582 C11.27630364 6.44864006 14.53273635 8.30242969 17.80078125 10.13671875 C18.41099121 10.48089844 19.02120117 10.82507813 19.64990234 11.1796875 C21.3472298 12.13660743 23.04660581 13.0898911 24.74609375 14.04296875 C28.28564298 16.17179728 31.63894389 18.59924564 35 21 C34.01 29.25 33.02 37.5 32 46 C29.834375 44.783125 27.66875 43.56625 25.4375 42.3125 C24.77032959 41.94036377 24.10315918 41.56822754 23.41577148 41.18481445 C21.59281574 40.1513886 19.79658271 39.07855832 18 38 C17.0706665 37.48288452 17.0706665 37.48288452 16.12255859 36.95532227 C10.59237311 33.55731899 8.88106797 29.28393003 6.75 23.3125 C6.42515625 22.46494141 6.1003125 21.61738281 5.765625 20.74414062 C0 5.45825983 0 5.45825983 0 0 Z " fill="#6A9EB1" transform="translate(504,508)"/>
<path d="M0 0 C0.33 0 0.66 0 1 0 C1.45550009 13.4372527 -7.22487226 22.4821304 -15.90185547 32.11035156 C-22.61748227 39.2335593 -29.69047134 45.82050933 -37.37890625 51.88671875 C-42.11322616 55.70380827 -46.52212827 59.88849959 -51 64 C-52.47329996 65.33981305 -53.95183741 66.67390858 -55.4375 68 C-56.03433594 68.53625 -56.63117188 69.0725 -57.24609375 69.625 C-59.07403758 71.05804282 -60.89214713 72.03641012 -63 73 C-59.45597141 68.81986372 -55.8716456 64.67561286 -52.25 60.5625 C-51.49203125 59.69753906 -50.7340625 58.83257812 -49.953125 57.94140625 C-48 56 -48 56 -46 56 C-45.61908203 55.12601562 -45.61908203 55.12601562 -45.23046875 54.234375 C-43.86679667 51.75811967 -42.35774797 50.19479374 -40.3125 48.25 C-37.00077692 45.02151592 -33.91926846 41.69355784 -30.90625 38.1875 C-28.69054352 35.64488601 -26.40901408 33.16889802 -24.125 30.6875 C-15.33508762 21.03191443 -7.24587453 10.86881179 0 0 Z " fill="#6EA5BC" transform="translate(290,372)"/>
<path d="M0 0 C2.97 0.99 5.94 1.98 9 3 C0.03066925 17.02895323 -11.18791424 29.31724364 -23 41 C-23.66 40.67 -24.32 40.34 -25 40 C-18.18501504 27.78130763 -11.24831744 15.58766209 -2.3125 4.76953125 C-0.80213595 2.92503648 -0.80213595 2.92503648 0 0 Z " fill="#5D95AE" transform="translate(159,295)"/>
<path d="M0 0 C4.84844421 2.10344651 7.54220707 5.37356626 10 10 C10.7369833 13.34733059 10.98597188 16.57713812 11 20 C6.68811172 18.04744682 3.89616825 16.77137423 2.125 12.25 C0.88787414 8.21226405 0.37483501 4.19815216 0 0 Z " fill="#66A0B5" transform="translate(865,537)"/>
<path d="M0 0 C2.99232073 3.63256954 5.65986709 7.38413175 8.25 11.3125 C8.95640625 12.38113281 9.6628125 13.44976562 10.390625 14.55078125 C10.92171875 15.35902344 11.4528125 16.16726563 12 17 C11.67 17.66 11.34 18.32 11 19 C6.08293044 13.66105169 1.87718653 8.13532814 -2 2 C-1.34 1.34 -0.68 0.68 0 0 Z " fill="#558BA3" transform="translate(330,283)"/>
<path d="M0 0 C0.66 0.33 1.32 0.66 2 1 C-5.33333333 8.33333333 -12.66666667 15.66666667 -20 23 C-19.91742265 19.04379419 -18.49233966 17.22344125 -15.76171875 14.58984375 C-14.41377665 13.36118856 -13.05526428 12.14404978 -11.6875 10.9375 C-10.33682416 9.71790783 -8.98655248 8.49786789 -7.63671875 7.27734375 C-7.00427246 6.71128418 -6.37182617 6.14522461 -5.72021484 5.56201172 C-3.74741976 3.77064882 -1.85532952 1.91256334 0 0 Z " fill="#47768E" transform="translate(277,105)"/>
<path d="M0 0 C0.33 0 0.66 0 1 0 C1.16682272 4.92127034 1.24828052 8.50343896 -1 13 C-1.66 12.34 -2.32 11.68 -3 11 C-3.99 11.66 -4.98 12.32 -6 13 C-6.33 12.01 -6.66 11.02 -7 10 C-5.6015625 7.51953125 -5.6015625 7.51953125 -3.625 4.8125 C-2.97789062 3.91144531 -2.33078125 3.01039063 -1.6640625 2.08203125 C-1.11492187 1.39496094 -0.56578125 0.70789063 0 0 Z " fill="#6198B0" transform="translate(290,372)"/>
<path d="M0 0 C1.32 0.66 2.64 1.32 4 2 C1.92181956 3.9640607 -0.16214565 5.92126906 -2.25 7.875 C-2.83652344 8.43058594 -3.42304688 8.98617188 -4.02734375 9.55859375 C-4.88779297 10.36103516 -4.88779297 10.36103516 -5.765625 11.1796875 C-6.28930664 11.67194824 -6.81298828 12.16420898 -7.35253906 12.67138672 C-9.13389793 14.10798348 -10.92462201 15.04911389 -13 16 C-8.93866463 10.40636594 -4.6208599 5.14036486 0 0 Z " fill="#71A7BE" transform="translate(281,273)"/>
<path d="M0 0 C4.18333056 0.22410699 6.49223439 0.6614896 10 3 C5.71 3 1.42 3 -3 3 C-2.01 2.01 -1.02 1.02 0 0 Z " fill="#3A758B" transform="translate(871,705)"/>
<path d="M0 0 C2.02045442 0.60183749 4.02111039 1.27306096 6 2 C6.33 2.66 6.66 3.32 7 4 C4.03 4 1.06 4 -2 4 C-1.01 3.67 -0.02 3.34 1 3 C0.67 2.01 0.34 1.02 0 0 Z " fill="#23556E" transform="translate(424,704)"/>
</svg>
